<svg width="18" height="21" viewBox="0 0 18 21" fill="none" xmlns="http://www.w3.org/2000/svg">
<path d="M1.28572 0C1.92857 0 6.42857 1.3125 6.42857 7.21875V11.8125C6.42857 13.2604 5.27545 14.4375 3.85714 14.4375H2.57143V19.6875C2.57143 20.4135 1.99688 21 1.28572 21C0.574554 21 0 20.4135 0 19.6875V14.4375V9.84375V1.3125C0 0.586523 0.574554 0 1.28572 0ZM15.4286 0.65625C15.4286 0.319922 15.6737 0.0410156 16.0031 0.00410156C16.3326 -0.0328125 16.6259 0.188672 16.6982 0.512695L17.9156 6.10313C17.9719 6.36152 18 6.62402 18 6.88652C18 8.76914 16.5897 10.3154 14.7857 10.4836V19.6875C14.7857 20.4135 14.2112 21 13.5 21C12.7888 21 12.2143 20.4135 12.2143 19.6875V10.4836C10.4103 10.3154 9 8.76914 9 6.88652C9 6.62402 9.02813 6.36152 9.08438 6.10313L10.3018 0.512695C10.3741 0.18457 10.6754 -0.0328125 11.0009 0.00410156C11.3263 0.0410156 11.5714 0.319922 11.5714 0.65625V6.16055C11.5714 6.38203 11.7482 6.5625 11.9652 6.5625C12.1701 6.5625 12.3388 6.40254 12.3589 6.19336L12.8612 0.598828C12.8893 0.258398 13.1665 0 13.5 0C13.8335 0 14.1107 0.258398 14.1388 0.598828L14.6371 6.19336C14.6571 6.40254 14.8259 6.5625 15.0308 6.5625C15.2478 6.5625 15.4246 6.38203 15.4246 6.16055V0.65625H15.4286ZM13.4879 6.89062H13.5H13.5121L13.5 6.86191L13.4879 6.89062Z" fill="#9A9A9A"/>
</svg>
