<svg width="23" height="18" viewBox="0 0 23 18" fill="none" xmlns="http://www.w3.org/2000/svg">
<path d="M4.30318 7.92644C7.76729 7.92644 11.2197 7.92582 14.6721 7.92924C14.7845 7.92935 14.837 7.90062 14.8867 7.79476C15.2549 7.0099 15.8798 6.58117 16.745 6.58673C17.6205 6.59235 18.2417 7.03638 18.6003 7.83629C18.634 7.91141 18.672 7.92811 18.7472 7.92797C19.9228 7.92572 21.0983 7.92536 22.2738 7.92729C22.5398 7.92772 22.7422 8.0454 22.8497 8.29319C22.9507 8.52612 22.9098 8.74526 22.7427 8.93564C22.6132 9.08325 22.4418 9.13528 22.2491 9.13513C21.1087 9.13424 19.9684 9.1347 18.828 9.1347C18.7856 9.1347 18.7431 9.1347 18.6976 9.1347C18.6148 9.43056 18.4897 9.69888 18.2934 9.92684C17.7832 10.5194 17.1346 10.771 16.3668 10.6283C15.6045 10.4867 15.0873 10.0249 14.8255 9.29323C14.7816 9.17062 14.7346 9.13096 14.6015 9.13109C9.95409 9.13543 5.30665 9.13474 0.659216 9.13462C0.324726 9.13461 0.0753418 8.94758 0.0144706 8.65248C-0.0640136 8.27198 0.222363 7.92836 0.624303 7.92707C1.30384 7.92488 1.98338 7.92645 2.66292 7.92645C3.20577 7.92644 3.74862 7.92644 4.30318 7.92644ZM17.4414 9.04373C17.465 8.99032 17.4952 8.9388 17.5112 8.88319C17.6093 8.54094 17.5384 8.23614 17.273 7.99735C17.0183 7.76817 16.7181 7.71632 16.4026 7.86034C16.0796 8.00781 15.9224 8.27835 15.9127 8.62517C15.9026 8.98957 16.1571 9.3203 16.504 9.42591C16.8593 9.53405 17.2109 9.3949 17.4414 9.04373Z" fill="white"/>
<path d="M6.27094 16.9208C5.88278 16.665 5.61235 16.3254 5.4614 15.8948C5.4337 15.8158 5.39502 15.7994 5.31827 15.7995C3.75606 15.8017 2.19385 15.8018 0.631632 15.8009C0.140957 15.8007 -0.154557 15.3146 0.0850556 14.9002C0.204711 14.6932 0.392848 14.5983 0.630627 14.5984C1.50156 14.5985 2.3725 14.5984 3.24343 14.5984C3.93081 14.5984 4.61819 14.5968 5.30555 14.6004C5.39172 14.6009 5.43214 14.5794 5.46571 14.4943C5.77223 13.7175 6.33896 13.2493 7.17207 13.1728C8.04585 13.0925 8.70588 13.4718 9.1448 14.2296C9.21069 14.3433 9.25332 14.4705 9.30975 14.5984C9.35618 14.5984 9.40672 14.5984 9.45725 14.5984C13.7221 14.5984 17.9869 14.5984 22.2518 14.5985C22.6004 14.5985 22.8475 14.8006 22.894 15.1224C22.9412 15.4488 22.702 15.7598 22.3741 15.7963C22.3239 15.8019 22.2728 15.8011 22.2221 15.8011C17.9572 15.8013 13.6924 15.8014 9.42754 15.8003C9.34914 15.8003 9.29744 15.8037 9.26326 15.8981C8.81699 17.1302 7.38749 17.6199 6.27094 16.9208ZM8.02643 14.7097C7.77382 14.3841 7.39259 14.2768 7.03824 14.4317C6.69233 14.5829 6.49012 14.9659 6.55599 15.3453C6.62235 15.7275 6.93858 16.019 7.32018 16.0353C7.64422 16.0491 7.89898 15.9108 8.06162 15.6317C8.23824 15.3286 8.22359 15.0213 8.02643 14.7097Z" fill="white"/>
<path d="M16.7719 2.64798C14.4011 2.64798 12.042 2.64798 9.67674 2.64798C9.58372 2.92695 9.44905 3.17982 9.25628 3.40005C8.25234 4.54693 6.37927 4.20524 5.84921 2.7752C5.81109 2.67237 5.76416 2.64529 5.65859 2.64552C3.98284 2.64916 2.30708 2.64863 0.631321 2.6476C0.140346 2.6473 -0.154428 2.16239 0.0844498 1.74571C0.203249 1.53848 0.390596 1.44412 0.629648 1.44458C1.3601 1.44599 2.09056 1.44512 2.82102 1.44509C3.77804 1.44506 4.73506 1.44413 5.69207 1.44658C5.76858 1.44677 5.80619 1.43024 5.83498 1.35135C6.12306 0.562181 6.82844 0.0411012 7.6515 0.00220135C8.46 -0.0360105 9.21482 0.425912 9.57306 1.1803C9.61307 1.26456 9.6433 1.35346 9.68004 1.44513C9.72343 1.44513 9.76617 1.44513 9.80892 1.44513C13.9612 1.44512 18.1135 1.44535 22.2658 1.44453C22.535 1.44447 22.7357 1.55658 22.8467 1.80143C22.9515 2.03247 22.9129 2.25327 22.7475 2.44497C22.623 2.58934 22.4584 2.64884 22.268 2.64858C21.307 2.64726 20.3461 2.64798 19.3852 2.64798C18.518 2.64798 17.6508 2.64798 16.7719 2.64798ZM8.40354 1.55913C8.39412 1.54668 8.38511 1.53389 8.37522 1.52182C8.12385 1.21489 7.72788 1.12275 7.38552 1.2914C7.03787 1.46266 6.85029 1.8576 6.93844 2.23271C7.02963 2.62077 7.35942 2.88939 7.7489 2.88123C8.06354 2.87465 8.3032 2.72809 8.45153 2.45095C8.61044 2.15405 8.59197 1.85849 8.40354 1.55913Z" fill="white"/>
</svg>
