<svg width="88" height="13" viewBox="0 0 88 13" fill="none" xmlns="http://www.w3.org/2000/svg">
<path d="M0 0.711868V0.802535C0.733333 0.714702 2.93334 2.7401 4.40001 4.0151C5.86667 5.2901 7.33334 8.02144 8.80001 9.47494C10.2667 10.9284 11.7333 11.1098 13.2 9.5316C14.6667 7.95344 16.1333 4.62144 17.6 3.0291C19.0667 1.43677 20.5333 1.58977 22 1.91844C23.4667 2.24994 24.9333 2.75994 26.4 3.90744C27.8667 5.05494 29.3333 6.83994 30.8 8.33594C32.2667 9.83477 33.7333 11.0418 35.2 9.8716C36.6667 8.70144 38.1333 5.14844 39.6 3.83094C41.0667 2.51344 42.5333 3.43144 44 3.5816C45.4667 3.73177 46.9333 3.11977 48.4 3.8026C49.8667 4.48827 51.3333 6.4716 52.8 6.62177C54.2667 6.77477 55.7333 5.09177 57.2 5.77744C58.6667 6.4631 60.1333 9.51177 61.6 10.4751C63.0667 11.4384 64.5333 10.3164 66 9.80644C67.4667 9.29644 68.9333 9.39844 70.4 9.9991C71.8667 10.5998 73.3333 11.6934 74.8 12.0193C76.2667 12.3451 77.7333 11.9031 79.2 10.2343C80.6667 8.56827 82.1333 5.67827 83.6 4.00094C85.0667 2.32644 87.2667 1.1761 88 0.946603H87.2667C86.5333 0.946603 85.0667 0.946603 83.6 0.946603C82.1333 0.946603 80.6667 0.946603 79.2 0.946603C77.7333 0.946603 76.2667 0.946603 74.8 0.946603C73.3333 0.946603 71.8667 0.946603 70.4 0.946603C68.9333 0.946603 67.4667 0.946603 66 0.946603C64.5333 0.946603 63.0667 0.946603 61.6 0.946603C60.1333 0.946603 58.6667 0.946603 57.2 0.946603C55.7333 0.946603 54.2667 0.946603 52.8 0.946603C51.3333 0.946603 49.8667 0.946603 48.4 0.946603C46.9333 0.946603 45.4667 0.946603 44 0.946603C42.5333 0.946603 41.0667 0.946603 39.6 0.946603C38.1333 0.946603 36.6667 0.946603 35.2 0.946603C33.7333 0.946603 32.2667 0.946603 30.8 0.946603C29.3333 0.946603 27.8667 0.946603 26.4 0.946603C24.9333 0.946603 23.4667 0.946603 22 0.946603C20.5333 0.946603 19.0667 0.946603 17.6 0.946603C16.1333 0.946603 14.6667 0.946603 13.2 0.946603C11.7333 0.946603 10.2667 0.946603 8.80001 0.946603C7.33334 0.946603 5.86667 0.946603 4.40001 0.946603C2.93334 0.946603 1.46667 0.802535 0.73334 0.802535L0 0.711868Z" fill="#FD6C0D"/>
</svg>
